<?xml version="1.0" standalone="no"?>
<!DOCTYPE svg PUBLIC "-//W3C//DTD SVG 20010904//EN"
 "http://www.w3.org/TR/2001/REC-SVG-20010904/DTD/svg10.dtd">
<svg version="1.0" xmlns="http://www.w3.org/2000/svg"
 width="240.000000pt" height="240.000000pt" viewBox="0 0 240.000000 240.000000"
 preserveAspectRatio="xMidYMid meet">
<metadata>
Created by potrace 1.14, written by Peter Selinger 2001-2017
</metadata>
<g transform="translate(0.000000,240.000000) scale(0.100000,-0.100000)"
fill="#000000" stroke="none">
<path d="M979 2220 c-1 -99 -2 -183 -3 -187 -1 -5 -5 -26 -10 -48 -4 -22 -24
-74 -43 -115 -33 -69 -59 -98 -327 -370 -252 -255 -295 -304 -323 -361 -126
-259 -45 -553 195 -707 67 -42 149 -71 225 -79 53 -5 62 -10 116 -62 31 -32
72 -63 91 -71 30 -12 31 -14 14 -27 -10 -7 -30 -13 -45 -13 -57 0 -80 -66 -29
-83 36 -13 101 7 155 48 67 52 75 48 75 -34 0 -38 3 -76 6 -85 7 -18 59 -22
69 -5 4 6 7 43 7 83 l0 72 44 1 43 1 0 -63 c-1 -88 6 -105 41 -105 38 0 44 12
45 95 0 59 3 70 18 73 10 2 30 -8 45 -23 74 -75 198 -86 190 -17 -3 27 -15 34
-80 47 -39 8 -35 19 15 48 24 14 62 46 85 71 32 35 50 46 72 46 101 0 247 63
331 142 70 66 112 128 146 215 24 60 27 82 26 183 0 124 -15 184 -69 279 -15
25 -147 168 -294 316 -147 149 -280 288 -297 310 -80 107 -103 202 -103 433
l0 172 -215 0 -215 0 -1 -180z"/>
</g>
</svg>
